<svg viewBox="-4 -4 24 24" xmlns="http://www.w3.org/2000/svg" width="16" height="16" fill="none"><path fill-rule="evenodd" d="M8.453 2.028c1.354.134 2.622.74 3.59 1.72a6.07 6.07 0 0 1 1.736 4.25c0 1.392-.475 2.74-1.342 3.812a5.88 5.88 0 0 1-3.405 2.075c-1.334.27-2.72.063-3.922-.59s-2.148-1.708-2.673-2.992a6.1 6.1 0 0 1-.198-4.046C2.636 4.927 3.474 3.78 4.608 3a5.82 5.82 0 0 1 3.846-.982zm.1-.995c1.588.157 3.073.87 4.202 2.013a7.07 7.07 0 0 1 2.024 4.952c.001 1.62-.552 3.19-1.564 4.44a6.88 6.88 0 0 1-3.984 2.426c-1.565.317-3.19.073-4.596-.7s-2.51-1.997-3.122-3.492a7.1 7.1 0 0 1-.231-4.71c.462-1.55 1.44-2.89 2.765-3.8a6.82 6.82 0 0 1 4.506-1.149zM7.5 5v1h1V5h-1zm0 2v4h1V7h-1z" fill="#007acc"/></svg>